<svg id="Layer_1" data-name="Layer 1" xmlns="http://www.w3.org/2000/svg" viewBox="0 0 512 512"><path d="M257,269H101.09a43.67,43.67,0,0,1-5.49-.14,11.94,11.94,0,0,1,.24-23.75,43.6,43.6,0,0,1,5-.11H413.16c1.34,0,2.67,0,4,0,6.74.41,11.73,5.42,11.8,11.83A12.05,12.05,0,0,1,417.42,269c-1.66.11-3.33.05-5,.05Z"/><path d="M177.21,143.82q39.47,0,78.92,0c5.14,0,9.09,1.93,11.49,6.5a11.22,11.22,0,0,1-.6,11.86c-2.69,4.21-6.81,5.64-11.56,5.65q-15.24,0-30.47,0-61.69,0-123.38,0a36.53,36.53,0,0,1-6.46-.34,11.87,11.87,0,0,1-10.08-12.82A11.68,11.68,0,0,1,96.79,143.9c13.82-.17,27.64-.07,41.46-.08Z"/><path d="M337,370.18q-38.46,0-76.92,0a25.63,25.63,0,0,1-6.91-.65A11.74,11.74,0,0,1,245,358.12,11.53,11.53,0,0,1,253.45,347a31.56,31.56,0,0,1,7.89-.79q75.68-.06,151.35,0a31.17,31.17,0,0,1,7.42.67,11.78,11.78,0,0,1-2.22,23.18c-5.48.26-11,.12-16.48.12Z"/></svg>